<svg xmlns="http://www.w3.org/2000/svg" id="Layer_1" data-name="Layer 1" version="1.1" viewBox="0 0 135 135"><defs><style>.cls-1,.cls-2{fill:#000;stroke-width:0}.cls-2{fill:#338ccc}</style></defs><path d="m10.9 47.8-2.6 2v1.5l2.1 2.1h2.4l3.6-3.6-2-2h-3.5ZM40 39.7c.4.8.6 1.7.5 2.6l-.8 1.6h2.2v-4.3H40ZM58.3 47.2l-.8-.8c-.5-.5-1.2-1.1-1.7-1.6a5.23 5.23 0 0 1-1-5.1c.5-1.2 2.9-9.1 3.5-11l-7.9-2.3-.2.8.2.3c.2.2.3.5.3.8-.1.7-1.1 1.2-1.6 1.3-.2.1-.5.2-.6.5v1.2c-.2.4-1.2 3.1-1.6 4.1l-.3.8c0 .3-.2.5-.3.7-.6 1.8-2.9 1.8-3 1.8h-.4q-.1 0-.2-.1V44H44c.5 0 1.1 0 1.6.2l4.5 1.3H53c.7.1 1.3.5 1.8.9s.7 1.1.7 1.7.4.6.9.6h1.2l.9-1.1-.2-.5Zm-8.7-7.1c-.3.8-1.8.2-1.5-.5 0 0 2.8-7.9 3-8.5.2-.6 1.8 0 1.6.5-.1.3-2.8 7.8-3.1 8.5Z" class="cls-2"/><path d="M49 38.5s-.4 1.2-.5 1.4.5.4.6.2.5-1.3.5-1.4c0-.2-.5-.4-.6-.2ZM49.7 36.7s-.5 1.2-.6 1.4.5.4.6.2.5-1.3.5-1.3c0-.3-.4-.5-.5-.3ZM50.3 34.9s-.4 1.1-.5 1.3.5.4.6.2.4-1.2.5-1.3c0-.2-.6-.4-.6-.2ZM50.9 33.2s-.4 1.1-.5 1.3.5.4.6.2.4-1.1.4-1.2c.2-.4-.4-.5-.5-.3ZM51.6 31.4s-.4 1.1-.5 1.3.5.4.6.2.4-1.2.4-1.2c.2-.3-.5-.5-.5-.3ZM63.1 22.8l-.3-.2c-.8-.2-9.6-2.2-10.2-2.3-.3 0-.5.2-.6.4v.4c-.2.8-.4 1.9-1.4 1.9h-.4l-12.9-4.8-5.1 4.6H32c-.2 0-.7-.5-.9-.3l-.6.6-1.4 1.4c0 .3 0 .6-.2.8s-.6.3-.8.1l-2.4 2.2c-.2.2.2.7 0 1-.2.3-.6.2-.7.3-.1 0-2.5 2.1-2.5 2.2h-.8c-.3.3-2.6 2.5-2.8 2.6-.2 0-.6.5-.4 1 0 .3.2.4 0 .6 0 0-1.5 1.3-2.1 2-.3.3 0 1-.6 1.4-.4.4-1.5 1.3-1.6 1.4-.5.5-.5.7-.2 1.1.4.5.7.7 1 .7s.6-.1.8-.3c.2 0 1.3-.8 1.4-1 .2-.2.5-.3.8-.3h1.9l1.1-.9c1-.8 4.2-3.8 4.6-4.2.7-1.2 1.3-2.5 1.9-3.8 0-.1.3-.6.3-.6 0-.2.2-.3.3-.3h.6l2.2-1.8c0-.4.2-.6.4-.7H31.9l1.7-1.6c.4-.2.5-.8.3-1.1-.1-.2 0-.4 0-.4h.1l2.6-2.5c.1 0 .1-.2.2-.2l13.1 3.4 8.7 2.7 3.3-1.2c.3-1 .9-3.1 1-3.6 0-.3.2-.6 0-.6Zm-9.5 1.5c-.5 0-.9-.4-.9-.9s.4-.9.9-.9.9.4.9.9-.4.9-.9.9ZM9 57.1l.8-.2h.1v-3.1l-.8-.8-.1 4.2Z" class="cls-2"/><path d="M55.2 49c-.4 0-.4-.6-.4-.8-.2-1.1-1.1-1.9-2.2-2h-2.8l-3.3-1-1.3-.4c-.4 0-.9-.2-1.3-.2h-7.3c-.8-.4-1.3-1.3-1.1-2.2-.2 0-.5-.3-.5-.7h-.5c0-.5-.4-.8-.8-.8h-.3c0-.4 0-1.3-.7-1.3h-.3v-.2c0-.2-.2-.3-.8-.3h-3.3s-.8 0-.8.5v.3h-6.2l-1.2 1h-2.6c-.2.2-1.6 1.1-1.6 1.1-.3.2-.6.3-.9.3h-.2c-1.1 0-1.3-1-1.8-1s-.3.2-.4.4c-.3.6-.5 1.2-.7 1.9-.1.4-.3 1.9-.4 2.5h.7v.6l-.5.5h2.6c.2 0 .3 0 .5.2l1.6 1.5.4.4s.1-.2.1-.3v-.6c0-.6.5-1 1.1-1h2.7c.3 0 .4-.2.6-.6 0 0 .1 0 .1-.2.2-.4.7-.7 1.1-.6h4.8l2.7 1.3h5.7c.4 0 0 1.4 1.8 1.4h11c.3 0 .6-.2.7-.6.2-.4.6-.6 1-.6h1.1V52.7h.5c.4 0 .5 0 1.1-.6s2.2-2.3 2.3-2.5v-.2c0-.2 0-.3-.1-.4Zm-37-4.8h-1.1c-.6 0-.8 0-.8.2v1.3h-.9v-1.9c0-.5.7-.6 1-.6h1.8v1Zm4.5 0h-2.4v-.9h2.4v.9Zm8.8 1.7c-.9.2-1.8.2-2.6 0-.7-.3-1.4-.7-2-1.1-.6-.3-1.3-.5-2.1-.5v-1c.8 0 1.5.2 2.3.4.2 0 1 .6 1.5.9.7.4 1.6.6 2.4.4h.6c.7.2.6 1 0 1.1Zm6.5 1.2c-.4 0-.8-.4-.8-.8s.4-.8.8-.8.8.4.8.8-.4.8-.8.8Zm10 .8c-.4 0-.8-.4-.8-.8s.4-.8.8-.8.8.4.8.8-.4.8-.8.8Z" class="cls-2"/><path d="m57 49.4-4 4.8h-2.2v1.3s0 .2-.2.2h-5.5s-.2 0-.2-.2v-1.3h-.6v.9H32.6v-.9h-2.7v.5h-4.4l-2.8 3.2h-8.4l-.4-.6h-1.3c-.1 0-.2 0-.2-.3 0-.4.1-.4.2-.4h.7v-.4c-.5-.6-.6-.8-.6-.8-.1 0-.1-.2-.1-.3v-.3c.1-.2.1-.3.3-.4l4.2-4.2c.3-.4.4-.7.4-1.5-.1-.5.5-.5.5-.5h2.6c.7 0 1-.7 1.2-1h.1V47c.1-.2.2-.3.6-.3h4.6s2.7 1.3 2.8 1.3h5.4c.2 0 .2 1.4 2.2 1.4h11c.6 0 1.1-.4 1.3-.9 0-.2.2-.3.4-.3h.5v4.6c0 .4.3.6.8.6h.4c.8 0 1.1-.4 1.7-.9.6-.6 2.1-2.4 2.2-2.5v-.4h1ZM10.9 85.7l-2.6-2v-1.5l2.1-2.1h2.4l3.6 3.6-2 2h-3.5zM40 93.8c.4-.8.6-1.7.5-2.6l-.8-1.6h2.2v4.3s-1.9 0-1.9-.1ZM57.5 87.2l.8-.8v-.5c.1 0-.8-1.1-.8-1.1h-1.2c-.6 0-.9.2-.9.6 0 .6-.3 1.2-.7 1.7-.5.5-1.1.8-1.8.9-.5.1-2.3 0-2.9.1l-4.5 1.4c-.5.2-1 .3-1.6.2h-1.2V95H43.3c.1 0 2.3 0 3 1.8.1.2.2.5.3.7l.3.8c.4 1 1.4 3.8 1.6 4v.5c-.2.3-.2.7 0 1 0 .2.3.4.6.5.5.2 1.6.6 1.6 1.3s-.1.6-.3.8c-.1.2-.2.2-.2.3l.2.8 7.9-2.4c-.6-1.9-3.1-9.7-3.5-11-.6-1.8-.2-3.7 1-5.1.5-.5 1.2-1.1 1.7-1.6Zm-6.4 15.3c-.2-.6-3-8.5-3-8.5-.3-.7 1.2-1.3 1.5-.5.3.8 3 8.2 3.1 8.5.2.6-1.4 1.1-1.6.5Z" class="cls-2"/><path d="M49 95s-.4-1.2-.5-1.4c0-.2.5-.4.6-.2 0 .2.5 1.3.5 1.4 0 .2-.5.4-.6.2ZM49.7 96.9s-.5-1.2-.6-1.4.5-.4.6-.2c0 .2.5 1.3.5 1.3 0 .3-.4.4-.5.3ZM50.3 98.6s-.4-1.1-.5-1.3.5-.4.6-.2.4 1.2.5 1.3c0 .3-.6.4-.6.2Z" class="cls-2"/><path d="M50.9 100.3s-.4-1.1-.5-1.3.5-.4.6-.2.4 1.1.4 1.2c.2.4-.4.5-.5.3ZM51.6 102.1s-.4-1.1-.5-1.3c0-.2.5-.4.6-.2 0 .2.4 1.2.4 1.2.2.4-.5.5-.5.3ZM63 110.1c-.2-.6-.8-2.7-1-3.7l-3.3-1.2-8.7 2.7-13.1 3.7H36.6l-2.6-2.5h-.1v-.4c.2-.5.1-1-.3-1.2l-1.7-1.6H31.3c-.2-.1-.4-.4-.4-.6l-2.2-1.9h-.6s-.2-.1-.3-.2l-.2-.6c-.6-1.4-1.2-2.7-1.9-3.9-.4-.4-3.6-3.3-4.6-4.2l-1.1-.9h-1.9c-.3 0-.6-.1-.8-.3-.2 0-1.3-.8-1.4-1-.3-.2-.5-.3-.8-.3s-.6.2-1 .7c-.3.4-.3.6.2 1.1 0 .1 1.1.9 1.6 1.4s.3 1.1.6 1.4c.6.6 2.1 2 2.1 2 .2.2 0 .3 0 .6-.2.5.3.8.4 1 0 0 2.5 2.3 2.8 2.5h.8l2.5 2.3s.5 0 .7.3c.2.3-.2.8 0 1l2.4 2.2h.8c.2.2.3.5.2.8l1.4 1.3.6.6c.2.2.8-.3.9-.3h.2l5.1 4.6 12.9-4.8s.3-.1.4-.1c1 0 1.3 1.2 1.4 1.9v.4c0 .3.3.5.6.4.5 0 9.3-2 10.2-2.3.3-.1.3-.2.3-.2s0-.5-.2-.7Zm-9.4.9c-.5 0-.9-.4-.9-.9s.4-.9.9-.9.9.4.9.9-.4.9-.9.9ZM9 76.4l.8.2h.1v3.1l-.8.8v-4.2Z" class="cls-2"/><path d="M55.4 83.9c0-.2-1.7-1.9-2.3-2.5-.7-.6-.7-.5-1.1-.6h-.5v5.3h-1.2c-.4 0-.8-.2-1-.6 0-.3-.4-.5-.7-.6h-11c-1.8 0-1.4 1.3-1.8 1.3H30l-2.7 1.4h-4.8c-.5 0-.9-.2-1.1-.6 0 0-.1 0-.1-.2-.2-.4-.4-.6-.6-.6H18c-.6 0-1.1-.3-1.2-.9v-.7s0-.2-.1-.3l-.4.4-1.6 1.5c-.1 0-.3.2-.5.2h-2.7l.5.5v.6h-.7c.1.6.3 2.1.4 2.5.2.6.4 1.2.7 1.9.1.2.2.4.4.4.5 0 .7-.8 1.8-1h.2c.3 0 .7 0 .9.3 0 0 1.4.9 1.6 1.1H20l1.2 1h6.1v.2c.1.5.8.5.8.5h3.2c.6 0 .6 0 .8-.3v-.2h.2c.7 0 .7-.9.7-1.2h.3c.4 0 .8-.3.8-.7h.5c0-.3.3-.6.6-.7-.2-.9.3-1.8 1.1-2.2h7.3c.5 0 .9 0 1.3-.2l1.3-.4 3.3-1h2.8c1.1 0 2.1-1 2.2-2.1 0-.2 0-.7.4-.8.2 0 .3-.2.3-.3v-.2Zm-37.2 6.4h-1.8s-1 0-1-.6v-1.9h.9v1.3s.3.2.8.2h1.1v1Zm4.5 0h-2.4v-.9h2.4v.9Zm8.9-1.7H31c-.8-.2-1.7 0-2.4.4-.5.4-1.3.8-1.5.9-.7.3-1.5.4-2.3.4v-1c.7 0 1.4-.2 2.1-.5.6-.4 1.3-.8 2-1.1.8-.3 1.7-.3 2.6-.2.7.3.8 1.1 0 1.2ZM38 88c-.4 0-.8-.4-.8-.8s.4-.8.8-.8.8.4.8.8-.3.8-.8.8Zm10-.9c-.4 0-.8-.4-.8-.8s.4-.8.8-.8.8.4.8.8-.4.8-.8.8Z" class="cls-2"/><path d="m57 84.1-4-4.8h-2.2V78s0-.2-.2-.2h-5.5s-.2 0-.2.2v1.3h-.6v-.9H32.6v.9h-2.7v-.5h-4.4l-2.8-3.2h-8.4l-.4.6h-1.3c-.1 0-.2 0-.2.3 0 .4.1.4.2.4h.7v.2l-.2.3c-.4.6-.5.8-.5.8-.1 0-.1.2-.1.3v.3c.1.2.1.3.3.4l4.2 4.2c.3.4.4.7.4 1.5s.6.4.6.4h2.6c.7 0 1 .7 1.2 1h.1v.2c.1.2.1.3.6.3h4.6s2.7-1.3 2.8-1.3h5.5c.2 0 .2-1.4 2.2-1.4h11c.6 0 1.1.4 1.3.9 0 .2.2.3.4.3h.5v-4.6c0-.4.3-.6.8-.6h.3c.8 0 1.1.4 1.7.9s2.1 2.4 2.2 2.5v.4h1Z" class="cls-2"/><path d="M93.7 48.5h4v3.2h-4zM104.1 48.5h4v2.4h-4zM93.3 79.1h4v6.3h-4zM82.9 79.1h4v6.3h-4z" class="cls-1"/><path d="M67.2.1H67c-.2 7.9-1 20-1 19.9.4 0 1.4-.1 1.9-.1H69c16.5.4 31.7 9.1 40.3 23.2h-4.8c-8-11.6-21-18.7-35.1-19.2h-1.5s-1.7.1-2.2.1c0-.2-3.6 22.9-6.3 28.3C52.3 66.8 14.6 65.5 0 67.7c14.2 1.1 45.9-.7 55.4 9.2 6.3 5.6 10.2 34.6 10.2 34.3h4c14.6-.5 28-8.2 35.8-20.5h4.7c-8.4 14.8-23.9 24.1-40.9 24.5h-3.3s.6 12.7.7 18.6h1.2c37.2-.3 67.2-30.1 67.2-66.9S104.7 0 67.2.1Zm34.5 46.8h7.2c.8 0 1.5.4 1.6 1.2v2.8c0 .8-.4 1.5-1.2 1.6h-.4l1.6 4h-2.4l-1.6-4h-2.4v4h-2.4v-9.6Zm6.4 23.2v1.6h-8.8v-1.6l5.6-6.3h-5.6v-1.6h8.8v1.6l-5.6 6.3h5.6ZM91.2 48.5c0-.8.4-1.5 1.2-1.6h6c.8 0 1.5.4 1.6 1.2v8.3h-2.4v-3.2h-4v3.2h-2.4v-7.9Zm6.5 13.7v9.5h-2.4v-9.5h2.4ZM80.8 46.9h8.8v1.6h-3.2v7.9H84v-7.9h-3.2v-1.6Zm0 15.3h2.4v9.5h-2.4v-9.5Zm-1.6 16.9H76V87h-2.4v-7.9h-3.2v-1.6h8.8v1.6Zm0-15.3h-6.4v6.3h6.4v1.6H72c-.8 0-1.5-.4-1.6-1.2v-6.7c0-.8.4-1.5 1.2-1.6h7.6v1.6Zm0-15.3h-6.4v2l4.8.8c.8 0 1.5.4 1.6 1.2v2.4c0 .8-.4 1.5-1.2 1.6h-7.6v-1.6h6.4v-2l-4.8-.8c-.8 0-1.5-.4-1.6-1.2v-2.4c0-.8.4-1.5 1.2-1.6h7.6v1.6Zm10.1 36.9c0 .8-.4 1.5-1.2 1.6h-6c-.8 0-1.5-.4-1.6-1.2v-6.7c0-.8.4-1.5 1.2-1.6h6c.8 0 1.5.4 1.6 1.2v6.7Zm1.1-13.7H88v-7.9h-3.2v-1.6h8.8v1.6h-3.2v7.9Zm9.4 13.7c0 .8-.4 1.5-1.2 1.6h-6c-.8 0-1.5-.4-1.6-1.2v-6.7c0-.8.4-1.5 1.2-1.6h6c.8 0 1.5.5 1.5 1.3v6.6Zm10.4 1.6H103c-.8 0-1.5-.4-1.6-1.2v-8.3h2.4v7.9h6.4V87Zm-.5-16.9v-6.3c0-.8.4-1.5 1.2-1.6h7.6v1.6h-6.4v2.3h4.8v1.6h-4.8v2.4h6.4v1.6h-7.2c-.8 0-1.5-.4-1.6-1.2v-.4Zm10.9 9h-6.4v2l4.8.8c.8 0 1.5.4 1.6 1.2v2.4c0 .8-.4 1.5-1.2 1.6h-7.6v-1.6h6.4v-2l-4.8-.8c-.8 0-1.5-.4-1.6-1.2v-2.4c0-.8.4-1.5 1.2-1.6h7.6v1.6Zm5.2-7.4-4-7.1v7.1h-1.6v-9.5h3.2l4 7.1v-7.1h1.6v9.5h-3.2Z" class="cls-1"/></svg>
